<?xml version="1.0" standalone="no"?><!DOCTYPE svg PUBLIC "-//W3C//DTD SVG 1.1//EN" "http://www.w3.org/Graphics/SVG/1.1/DTD/svg11.dtd"><svg t="1650706599204" class="icon" viewBox="0 0 1024 1024" version="1.1" xmlns="http://www.w3.org/2000/svg" p-id="9225" xmlns:xlink="http://www.w3.org/1999/xlink" width="128" height="128"><defs><style type="text/css"></style></defs><path d="M227.092 860.804c-26.416 5.74-52.608 6.012-78.388-3.328-0.84-6.32 2.076-10.888 5.8-15.884 17.844-23.924 17.524-31.28-0.54-55.104-2.348-3.084-4.332-6.468-6.388-9.776-2.336-3.748-2.524-7.424 1.168-10.448 2.992-2.448 5.988-1.772 8.82 0.54 12.444 10.148 27.952 14.236 42.328 20.032 67.612 27.292 136.072 28.916 204.972 4.124 5.824-2.084 9.5-5.664 9.064-11.024-0.52-6.432-6.98-4.292-11.104-4.88-41.3-5.904-81.348-16.956-120.924-29.764-5.116-1.66-13.24-3.028-13.212-9.764 0.036-7.924 8.636-10.088 14.492-10.584 29.252-2.492 57.524-9.152 86.096-15.596 25.08-5.656 48.604-15.668 65.836-31.76 38.488-35.928 76.716-73.24 103.764-119.108 13.708-23.248 30.092-46.488 30.044-75.556-0.032-20.152-8.44-29.44-28.08-29.636-34.568-0.344-68.868-6.588-103.552-4.26-3.832 0.26-9.472 2.22-11.068-4.428 1.028-0.916 1.884-2.356 2.844-2.428 57-4.4 107.608-25.772 152.096-60.584 14.332-11.212 34.9-20.048 33.824-44.076 5.112-3.3 11.356-10.932 12.476 2.772 0.536 6.508 1.564 12.68 3.948 18.884 24.388 63.324 49.916 125.872 106.06 169.276 6 37.344 12 74.696 17.992 112.04-5.872 0.296-11.736 0.632-17.608 0.892-25.288 1.112-37.272 10.54-42.096 35.164-2.616 13.38-3.684 27.128-4.58 40.768-2.904 44.492 7.164 86.652 23.94 127.496-27.584-16.6-54.296-35.872-91.764-31.112 3.42 4.532 4.976 6.576 6.508 8.632 25.8 34.54 39.04 72.228 34.408 116.356-2.46 23.432-11.94 43.56-20.62 64.436h-35.356c-16.432-10.432-36.568 1.344-54.276-7.988 5.4-7.368 8.916-14.952 14.78-19.556 9.556-7.508 20.64-13.076 31.084-19.46 21.868-13.348 32.924-35.132 27.748-59.34-5.048-23.592-23.76-35.448-44.68-42-9-2.812-17.248-4.78-23.192-12.224-7.36-9.2-13.7-7.532-23.096-1.296-17.892 11.856-26.684 31.816-43.084 44.668l-42.232-0.508c-18.756-1.26-37.54-2.24-56.264-3.892-11.72-1.04-16.796 3.132-15.864 15.3 1.744 22.852-2.74 45.088-7.544 67.288-2.16 9.968-9.968 18.584-7.156 29.724-27.932-0.068-55.864-0.132-83.796-0.212 1.312-21.376 18.464-31.812 31.296-45.18 13.376-13.92 22.032-30.008 15.752-49.276-5.872-18.036-19.744-28.084-39.088-30.692-13.444-1.828-26.72-4.972-40-7.856-7.292-1.596-14.444-7.192-21.588 0.188z" fill="#376191" p-id="9226"></path><path d="M493.568 885.912c16.4-12.852 25.192-32.812 43.084-44.668 9.4-6.236 15.74-7.904 23.096 1.296 5.944 7.44 14.192 9.412 23.192 12.224 20.916 6.552 39.632 18.408 44.68 42 5.18 24.208-5.88 45.992-27.748 59.34-10.44 6.388-21.528 11.952-31.084 19.46-5.864 4.6-9.384 12.188-14.78 19.556 17.712 9.332 37.844-2.444 54.276 7.988h-145.348l-0.008-7.948c1.196-18.52 8.128-36.532 5.048-55.44 12.44-16.088 16.388-36.196 25.592-53.808z" fill="#9F9F9F" p-id="9227"></path><path d="M643.644 1003.104c8.68-20.88 18.16-41.004 20.62-64.436 4.632-44.128-8.604-81.816-34.408-116.356-1.532-2.06-3.084-4.1-6.508-8.632 37.468-4.756 64.184 14.512 91.76 31.112 1.172 1.612 2.336 3.236 3.512 4.848-0.388 2.572 0.44 4.192 3.288 4.244 4.996 3.968 9.996 7.936 14.992 11.916 0.84 3.688 0.536 8.34 2.696 10.936 22.196 26.708 31.808 58.376 37.188 91.804-2.908 2.408-1.892 4.42 0.648 6.28 0.68 8.708 3.1 17.38 0.54 26.148-21.568-0.228-43.172-1.18-64.716-0.436-19.268 0.664-38.812-3.676-57.828 2.576l-11.784-0.004z" fill="#030304" p-id="9228"></path><path d="M655.432 1003.104c19.016-6.248 38.56-1.912 57.828-2.576 21.544-0.744 43.148 0.212 64.716 0.436-0.004 0.008 0.492 1.388 0.492 1.388l-1.252 0.752h-121.784z" fill="#376191" p-id="9229"></path><path d="M737.464 528.436c-56.14-43.408-81.668-105.956-106.056-169.28-2.388-6.204-3.416-12.376-3.948-18.884-1.12-13.708-7.364-6.072-12.464-2.768-72.6 26.72-146.796 47.448-224.048 54.464-56.816 5.156-113.86 6.844-168.648-13.844-31.408-11.856-59.188-28.656-74.456-62.592-8.296 11.584-12.236 22.368 0.028 33.8-2.304 11.584 7.172 19.3 9.62 29.324-11.312 34.012-15.308 69.54-21.688 104.576-8.064 2.6-11.196-3.064-15.696-8.192-16.628-18.972-27.788-40.576-33.832-64.948-9.404-53.88 11.74-96.184 50.568-131.332 10.04-9.088 15.412-18.476 18.052-32.544 4.536-24.168 13.992-47.432 21.732-70.964 1.388-4.212 3.576-10.16 6.884-11.428 32.948-12.688 44.9-46.256 68.596-68.12 48.652-44.9 106-69.708 170.908-78.712 3.844-0.536 8.128-0.252 11.452-1.888 48.344-23.776 92.712-4.344 136.844 13.236 6.204 2.476 12.084 3.6 18.264 4.816l67.056 47.768c0.432 1.848 0.244 4.312 1.384 5.456 34.532 34.648 56.564 76.652 72.392 122.344-2.82 29.92 0.912 33.332 34.432 31.5l34.5 3.072c24.028 6.892 43.788 22.64 66.544 32.168 3.064 7.212 5.812 14.792 11.924 19.988 49.08 41.692 54.296 122.82 13.044 180.312-42.784 41.872-89.532 72.188-153.388 52.672z m99.712-202.732c-0.468-28.74-14.692-41.124-33.192-50.004-19.184-9.204-38.908-12.204-57.112 1.48-12.22 9.196-14.968 22.824-3.64 33.752 19.04 18.356 42.46 29.704 69.068 32.8 17.364 2.02 25.544-6.64 24.876-18.028zM397.248 209.94c0 5.864 0.708 11.832-0.14 17.572-2.136 14.48 3.088 18.896 18.02 18.692 42.464-0.576 42.476 0.148 42.32-42.888-0.008-1.956-0.344-3.976 0.028-5.852 4.164-20.832-5.728-24.748-24.616-23.912-35.396 1.564-35.444 0.5-35.612 36.388z m-126.352-0.416c0 5.88 0.684 11.856-0.136 17.624-2.032 14.26 2.684 19.112 17.908 18.844 42.052-0.732 42.068 0.036 42.068-41.76 0-1.956-0.284-3.964 0.044-5.868 3.336-19.252-3.332-26.012-23.924-24.912-35.804 1.924-35.88 0.512-35.96 36.072z" fill="#EBC06A" p-id="9230"></path><path d="M135.804 483.228c6.384-35.032 10.38-70.56 21.684-104.576 38.792 36.808 85.352 55.444 138.192 59.64-5.208-4.88-11.084-8.836-17.548-10.528-31.26-8.184-58.48-24.3-84.224-42.924-15.672-11.34-28.372-26.648-46.032-35.508-12.26-11.432-8.324-22.216-0.028-33.8 15.264 33.936 43.048 50.736 74.456 62.592 54.784 20.692 111.832 19 168.648 13.844 77.252-7.012 151.448-27.744 224.048-54.464 1.064 24.02-19.504 32.856-33.836 44.068-44.488 34.812-95.096 56.188-152.096 60.584-0.96 0.072-1.816 1.512-2.844 2.428 1.592 6.648 7.232 4.688 11.068 4.428 34.684-2.328 68.984 3.916 103.552 4.26 19.636 0.196 28.048 9.484 28.08 29.636 0.052 29.068-16.336 52.308-30.044 75.556-27.048 45.872-65.276 83.18-103.764 119.108-17.232 16.092-40.76 26.104-65.836 31.76-28.576 6.444-56.844 13.104-86.096 15.596-5.856 0.496-14.456 2.66-14.492 10.584-0.028 6.74 8.096 8.104 13.212 9.764 39.58 12.808 79.624 23.864 120.924 29.764 4.124 0.584 10.584-1.556 11.104 4.88 0.432 5.36-3.244 8.936-9.064 11.024-68.9 24.788-137.356 23.168-204.972-4.124-14.376-5.796-29.884-9.884-42.328-20.032-2.832-2.312-5.828-2.988-8.82-0.54-3.688 3.024-3.5 6.704-1.168 10.448 2.056 3.308 4.036 6.692 6.388 9.776 18.068 23.824 18.384 31.18 0.54 55.104-3.724 4.996-6.64 9.564-5.8 15.884-62.1-12.484-128.392-84.256-112.748-175.416 5.1-29.74 32.184-47.464 71.392-49.2 14.848 2.932 18.076-5.084 17.692-17.812-1.34-44.304 2.436-88.248 10.76-131.804z m-18.916 255.564c-0.824-9.712 0.132-18.796-2.856-27.696-2.568-7.652-4.82-15.752-14.06-16.58-8.3-0.728-14.66 4.428-19.528 10.948-7.632 10.208-7.08 22.12-5.924 33.728 1.708 17.156 14.852 32.66 26.824 31.072 20.572-2.724 14.168-19.528 15.544-31.472zM736.908 865.796l-14.988-11.916c-1.096-1.412-2.196-2.824-3.292-4.244-1.176-1.612-2.34-3.236-3.512-4.848-16.772-40.844-26.84-83.004-23.936-127.496 0.896-13.64 1.96-27.392 4.58-40.768 4.824-24.624 16.808-34.052 42.096-35.164 5.876-0.256 11.74-0.592 17.62-0.888l67.528 1.372c26.724 4.792 54.176 1.064 80.86 6.864 4.848 1.044 10.392-1.532 14.856 2.48 0.128 18.28 0.6 36.572 0.34 54.848-0.896 64.552-58.16 137.972-120.136 156.912-11.384 3.48-25.94 2.328-33.824 14.76-11.464 0.9-19.252-6.864-28.192-11.912z m9.408-107.844c0.632 5.92-5.16 20.888 10.152 26.784 14.732 5.656 26.524-3.46 36.54-13.032 14.928-14.256 22.3-31.772 19.352-52.876-2.024-14.532-19.844-31.664-35.024-32.24-16.932-0.644-21.196 12.332-24.86 25.248-3.744 13.168-7.308 26.392-6.16 46.116z" fill="#6DAAD2" p-id="9231"></path><path d="M865.884 275.468c-22.752-9.532-42.516-25.28-66.544-32.168-5.08-33-13.816-64.836-30.012-94.304-24.424-44.444-62.188-66.808-112.696-68.076L589.576 33.152c108.84-35.752 203.44 8.352 247.312 115.072 16.796 40.836 24.72 83.604 28.996 127.244zM765.092 877.712c7.884-12.432 22.44-11.28 33.824-14.76 61.976-18.936 119.244-92.36 120.136-156.912 0.26-18.276-0.212-36.568-0.34-54.848 28.032 3.368 43.564 20.616 47.636 47.04 8.848 57.36-9.732 106.388-52.32 144.616-42.556 38.208-92.456 52.472-148.936 34.864z" fill="#376191" p-id="9232"></path><path d="M227.092 860.804c7.144-7.38 14.296-1.784 21.58-0.196 13.28 2.884 26.556 6.028 40 7.856 19.344 2.608 33.216 12.656 39.088 30.692 6.28 19.268-2.376 35.356-15.752 49.276-12.832 13.368-29.984 23.804-31.296 45.18-23.304 3.888-46.76 0.54-70.124 1.568-12.268 0.54-11.22-7.996-10.904-15.928 1.492-37.108 12.372-71.576 28.728-104.672 1.704-3.452 12.94-10.752-1.32-13.776zM823 641.848c-22.508-0.452-45.008-0.912-67.528-1.372l-18.004-112.044c63.852 19.52 110.596-10.796 153.384-52.668 0.592 24.2-19.796 36.016-33.028 50.408-20.352 22.144-34.088 43.964-30.192 75.468 1.604 13.016-2.9 26.776-4.632 40.208z" fill="#9F9F9F" p-id="9233"></path><path d="M467.98 939.716c3.08 18.912-3.852 36.92-5.048 55.44-32.8-0.444-65.596-0.892-98.408-1.328-2.828-11.144 4.984-19.756 7.144-29.728 4.804-22.2 9.284-44.436 7.544-67.288-0.928-12.168 4.148-16.34 15.864-15.3 18.724 1.652 37.504 2.628 56.264 3.888 4.888 18.308 13.992 35.32 16.64 54.316z" fill="#030304" p-id="9234"></path><path d="M135.804 483.228c-8.324 43.556-12.096 87.5-10.76 131.82 0.384 12.732-2.844 20.748-17.692 17.812 4.82-30.328-1.448-61.388 5.924-91.54 6.612-27.036-3.112-50.396-16.012-73.208-10.192-18.016-19.34-36.416-10.992-58.028 6.048 24.376 17.212 45.98 33.836 64.952 4.496 5.132 7.632 10.792 15.696 8.192z" fill="#9F9F9F" p-id="9235"></path><path d="M777.436 974.82c-2.54-1.86-3.556-3.876-0.648-6.28 2.38 1.876 2.384 3.988 0.648 6.28zM718.624 849.64l3.292 4.244c-2.848-0.052-3.676-1.672-3.292-4.244z" fill="#376191" p-id="9236"></path><path d="M656.632 80.924c50.508 1.264 88.268 23.628 112.696 68.076 16.196 29.468 24.932 61.304 30.012 94.304-11.5-1.024-23-2.052-34.5-3.068-5.748-16.764-18.184-26.22-34.432-31.508-15.828-45.692-37.86-87.696-72.392-122.344-1.14-1.148-0.948-3.612-1.384-5.46zM837.176 325.704c0.668 11.388-7.512 20.052-24.88 18.028-26.604-3.096-50.028-14.444-69.068-32.8-11.328-10.928-8.58-24.56 3.64-33.752 18.208-13.68 37.928-10.684 57.112-1.48 18.504 8.88 32.728 21.264 33.196 50.004z" fill="#FDFDFD" p-id="9237"></path><path d="M397.248 209.94c0.168-35.888 0.216-34.824 35.616-36.388 18.888-0.836 28.78 3.076 24.616 23.912-0.376 1.876-0.036 3.9-0.028 5.852 0.156 43.032 0.144 42.312-42.32 42.888-14.932 0.204-20.156-4.212-18.02-18.692 0.844-5.74 0.136-11.708 0.136-17.572zM270.916 209.524c0.06-35.56 0.136-34.148 35.932-36.072 20.592-1.1 27.26 5.656 23.924 24.912-0.332 1.904-0.044 3.916-0.044 5.868 0 41.8-0.012 41.032-42.068 41.76-15.224 0.264-19.936-4.584-17.908-18.844 0.828-5.768 0.144-11.744 0.164-17.624z" fill="#030304" p-id="9238"></path><path d="M147.872 349.332c17.66 8.86 30.356 24.168 46.032 35.508 25.744 18.624 52.964 34.74 84.224 42.924 6.468 1.692 12.34 5.648 17.548 10.528-52.84-4.196-99.4-22.832-138.192-59.64-2.44-10.02-11.916-17.736-9.612-29.32zM730.408 208.724c16.248 5.288 28.688 14.744 34.432 31.508-33.524 1.824-37.256-1.588-34.432-31.508z" fill="#376191" p-id="9239"></path><path d="M116.888 738.792c-1.376 11.94 5.028 28.748-15.544 31.472-11.972 1.588-25.116-13.916-26.824-31.072-1.152-11.604-1.708-23.52 5.924-33.728 4.868-6.52 11.228-11.676 19.528-10.948 9.244 0.824 11.496 8.924 14.06 16.58 2.988 8.9 2.032 17.988 2.856 27.696zM746.316 757.952c-1.148-19.728 2.416-32.948 6.16-46.108 3.664-12.916 7.924-25.896 24.86-25.248 15.18 0.576 33 17.708 35.024 32.24 2.948 21.1-4.42 38.616-19.352 52.876-10.016 9.572-21.808 18.688-36.54 13.032-15.312-5.904-9.52-20.868-10.152-26.792z" fill="#FDFDFD" p-id="9240"></path></svg>